# xmcd
#
# Track frame offsets:
#	150
#	23508
#	55612
#	75477
#	105197
#	128037
#	146787
#	189398
#	209805
#	233155
#
# Disc length: 3399 seconds
#
# Revision: 0
# Processed by: cddbd v1.5.1PL0 Copyright (c) Steve Scherf et al.
# Submitted via: dBpowerAMP V4.0
#
DISCID=7b0d450a
DTITLE=The Chris Fitz Band - This Is My Church...
DYEAR=2000
DGENRE=Blues
TTITLE0=Love Has Faded
TTITLE1=Your Home Is A Prison
TTITLE2=This Is My Church
TTITLE3=Blues For Ronnie
TTITLE4=Hug You Squeeze You
TTITLE5=Medicine For The Blues
TTITLE6=Lonely
TTITLE7=Custer's Last Stand
TTITLE8=Viagra Blues
TTITLE9=Late Night At Lake West
EXTD=
EXTT0=
EXTT1=
EXTT2=
EXTT3=
EXTT4=
EXTT5=
EXTT6=
EXTT7=
EXTT8=
EXTT9=
PLAYORDER=
